<svg width="892" height="716" viewBox="0 0 892 716" fill="none" xmlns="http://www.w3.org/2000/svg">
<path d="M624.297 160.947H620.298V51.4019C620.298 34.5867 613.619 18.4602 601.728 6.57C589.838 -5.32015 573.712 -12 556.897 -12H324.81C307.995 -12 291.868 -5.32025 279.978 6.5699C268.088 18.46 261.408 34.5865 261.408 51.4017V652.376C261.408 669.191 268.088 685.318 279.978 697.208C291.868 709.098 307.994 715.778 324.81 715.778H556.896C573.711 715.778 589.838 709.098 601.728 697.208C613.618 685.318 620.298 669.192 620.298 652.376V238.923H624.297V160.947Z" fill="#0B0B0C"/>
<path d="M606.803 51.8443V651.934C606.803 664.492 601.815 676.536 592.935 685.416C584.055 694.295 572.011 699.284 559.454 699.284H326.253C313.696 699.284 301.652 694.295 292.772 685.416C283.892 676.536 278.904 664.492 278.904 651.934V51.8443C278.904 39.2864 283.892 27.2428 292.772 18.363C301.652 9.48322 313.696 4.49452 326.253 4.49432H354.543C353.153 7.91032 352.624 11.6155 353.002 15.2841C353.38 18.9526 354.654 22.4721 356.711 25.533C358.768 28.5938 361.546 31.1021 364.8 32.8374C368.055 34.5726 371.686 35.4816 375.374 35.4843H508.333C512.021 35.4815 515.652 34.5726 518.907 32.8373C522.161 31.1021 524.939 28.5937 526.996 25.5329C529.053 22.4721 530.327 18.9526 530.705 15.284C531.083 11.6155 530.554 7.91032 529.163 4.49432H559.454C572.011 4.49452 584.055 9.48322 592.935 18.363C601.815 27.2428 606.803 39.2864 606.803 51.8443Z" fill="#F4F4F4"/>
<path d="M531.678 310.6C530.127 311.41 528.551 312.177 526.947 312.9C525.487 313.56 524.004 314.18 522.498 314.76C521.947 314.97 521.388 315.18 520.828 315.39C516.4 316.996 511.853 318.25 507.228 319.14C504.938 319.59 502.618 319.944 500.268 320.2C498.328 320.42 496.368 320.577 494.388 320.67C492.978 320.74 491.567 320.77 490.147 320.77C484.524 320.773 478.913 320.247 473.388 319.2C471.947 318.94 470.538 318.63 469.127 318.29C462.307 316.656 455.704 314.219 449.457 311.03C448.897 310.75 448.337 310.45 447.777 310.16C446.947 309.72 446.138 309.26 445.328 308.78C445.717 308.24 446.138 307.71 446.567 307.19C451.247 301.391 457.095 296.644 463.732 293.257C470.369 289.869 477.646 287.919 485.087 287.532C492.528 287.145 499.968 288.331 506.92 291.011C513.873 293.692 520.182 297.808 525.437 303.09C527.262 304.921 528.952 306.879 530.498 308.95C530.907 309.49 531.297 310.04 531.678 310.6Z" fill="#00B0FF"/>
<path d="M492.143 266.673C516.394 266.673 536.053 247.014 536.053 222.764C536.053 198.513 516.394 178.854 492.143 178.854C467.893 178.854 448.234 198.513 448.234 222.764C448.234 247.014 467.893 266.673 492.143 266.673Z" fill="#0B0B0C"/>
<path d="M503.822 266.735C519.659 258.078 525.48 238.221 516.822 222.384C508.165 206.546 488.308 200.726 472.471 209.383C456.633 218.041 450.813 237.898 459.47 253.735C468.128 269.572 487.985 275.393 503.822 266.735Z" fill="#A0616A"/>
<path d="M522.486 217.503C515.018 222.65 506.154 225.39 497.084 225.353C500.32 227.597 504.003 229.112 507.88 229.795C495.821 232.382 483.358 232.452 471.27 230.001C468.583 229.57 465.991 228.679 463.606 227.368C462.418 226.705 461.383 225.799 460.568 224.709C459.753 223.619 459.176 222.369 458.876 221.042C458.073 216.453 461.648 212.284 465.364 209.475C471.053 205.239 477.612 202.32 484.568 200.93C491.523 199.541 498.7 199.714 505.58 201.438C510.073 202.6 514.573 204.562 517.491 208.169C520.409 211.777 521.274 217.339 518.493 221.054L522.486 217.503Z" fill="#0B0B0C"/>
<path d="M490.147 140.77C470.52 140.767 451.429 147.182 435.785 159.037C420.142 170.891 408.803 187.535 403.497 206.433C398.192 225.33 399.21 245.443 406.397 263.708C413.585 281.973 426.547 297.387 443.308 307.6L443.888 307.94C444.368 308.23 444.848 308.51 445.328 308.78C446.138 309.26 446.947 309.72 447.777 310.16C448.337 310.45 448.897 310.75 449.458 311.03C455.704 314.219 462.307 316.656 469.127 318.29C470.538 318.63 471.947 318.94 473.388 319.2C478.913 320.247 484.524 320.773 490.147 320.77C491.567 320.77 492.978 320.74 494.388 320.67C496.368 320.58 498.328 320.424 500.268 320.2C502.618 319.94 504.938 319.587 507.228 319.14C511.853 318.25 516.4 316.996 520.828 315.39C521.388 315.18 521.947 314.97 522.498 314.76C524.007 314.18 525.491 313.56 526.947 312.9C528.547 312.18 530.124 311.414 531.678 310.6C547.245 302.448 560.112 289.952 568.717 274.63C568.757 274.55 568.808 274.47 568.848 274.39C573.439 266.152 576.696 257.238 578.498 247.98C581.027 234.948 580.644 221.517 577.375 208.65C574.107 195.783 568.034 183.797 559.591 173.552C551.148 163.307 540.544 155.055 528.539 149.388C516.533 143.721 503.423 140.778 490.148 140.77H490.147ZM567.208 273.22C567.127 273.36 567.058 273.5 566.978 273.63C558.544 288.726 545.858 301.009 530.498 308.95C528.967 309.75 527.411 310.5 525.828 311.2C524.518 311.79 523.178 312.35 521.828 312.87C521.257 313.09 520.678 313.31 520.098 313.51C516.272 314.908 512.352 316.03 508.368 316.87C505.412 317.5 502.424 317.97 499.417 318.28C497.567 318.48 495.687 318.62 493.797 318.69C492.587 318.74 491.368 318.77 490.147 318.77C484.705 318.777 479.275 318.271 473.928 317.26C470.675 316.66 467.459 315.872 464.297 314.9C459.481 313.412 454.801 311.515 450.308 309.23C449.788 308.96 449.268 308.69 448.757 308.41C448.027 308.02 447.288 307.62 446.567 307.19C446.027 306.89 445.487 306.57 444.957 306.25C444.647 306.07 444.337 305.88 444.027 305.69C429.332 296.666 417.609 283.525 410.314 267.899C403.019 252.272 400.472 234.848 402.99 217.788C405.507 200.727 412.978 184.781 424.475 171.928C435.973 159.075 450.991 149.88 467.667 145.484C484.343 141.088 501.942 141.685 518.281 147.201C534.621 152.716 548.981 162.908 559.582 176.51C570.182 190.113 576.555 206.529 577.911 223.721C579.266 240.913 575.545 258.124 567.207 273.22H567.208Z" fill="#3F3D56"/>
<path d="M469.907 179.46C469.435 174.492 463.348 171.433 458.589 172.934C453.83 174.435 450.705 179.227 449.76 184.127C449.306 186.191 449.263 188.324 449.635 190.404C450.006 192.484 450.785 194.471 451.926 196.249C454.331 199.712 458.752 201.872 462.876 200.993C467.583 199.99 470.844 195.394 471.777 190.672C472.71 185.951 471.784 181.083 470.858 176.36L469.907 179.46Z" fill="#0B0B0C"/>
<path d="M536.889 186.557C536.417 181.589 530.331 178.53 525.571 180.031C520.812 181.532 517.687 186.324 516.743 191.224C516.288 193.288 516.246 195.421 516.617 197.501C516.989 199.581 517.767 201.568 518.908 203.346C521.314 206.809 525.735 208.969 529.858 208.09C534.565 207.087 537.826 202.491 538.759 197.769C539.692 193.048 538.766 188.18 537.841 183.457L536.889 186.557Z" fill="#0B0B0C"/>
<path d="M334.584 266.739C333.961 266.738 333.345 266.608 332.776 266.356C332.207 266.103 331.696 265.735 331.277 265.275L281.655 211.141C281.092 210.528 280.408 210.039 279.646 209.704C278.884 209.368 278.061 209.195 277.229 209.194H15.0093C11.0299 209.189 7.21487 207.607 4.40105 204.793C1.58723 201.979 0.00446778 198.164 0 194.185V99.622C0.00446514 95.643 1.58723 91.828 4.40105 89.014C7.21487 86.2001 11.0299 84.6173 15.0093 84.6129H354.734C358.714 84.6173 362.529 86.2001 365.343 89.014C368.157 91.828 369.739 95.643 369.744 99.622V194.185C369.739 198.164 368.157 201.979 365.343 204.793C362.529 207.607 358.714 209.189 354.734 209.194H345.103C343.511 209.196 341.985 209.829 340.859 210.955C339.733 212.081 339.1 213.607 339.099 215.199V262.232C339.102 263.14 338.83 264.028 338.317 264.777C337.805 265.527 337.076 266.102 336.228 266.428C335.704 266.633 335.147 266.738 334.584 266.739Z" fill="#F4F4F4"/>
<path d="M334.584 266.739C333.961 266.738 333.345 266.608 332.776 266.356C332.207 266.103 331.696 265.735 331.277 265.275L281.655 211.141C281.092 210.528 280.408 210.039 279.646 209.704C278.884 209.368 278.061 209.195 277.229 209.194H15.0093C11.0299 209.189 7.21487 207.607 4.40105 204.793C1.58723 201.979 0.00446778 198.164 0 194.185V99.622C0.00446514 95.643 1.58723 91.828 4.40105 89.014C7.21487 86.2001 11.0299 84.6173 15.0093 84.6129H354.734C358.714 84.6173 362.529 86.2001 365.343 89.014C368.157 91.828 369.739 95.643 369.744 99.622V194.185C369.739 198.164 368.157 201.979 365.343 204.793C362.529 207.607 358.714 209.189 354.734 209.194H345.103C343.511 209.196 341.985 209.829 340.859 210.955C339.733 212.081 339.1 213.607 339.099 215.199V262.232C339.102 263.14 338.83 264.028 338.317 264.777C337.805 265.527 337.076 266.102 336.228 266.428C335.704 266.633 335.147 266.738 334.584 266.739ZM15.0093 86.6129C11.5602 86.6168 8.25349 87.9886 5.81462 90.428C3.37575 92.866 2.00389 96.173 2 99.622V194.185C2.0039 197.634 3.37577 200.94 5.81464 203.379C8.25351 205.818 11.5602 207.19 15.0093 207.194H277.229C278.338 207.195 279.436 207.426 280.451 207.873C281.467 208.32 282.379 208.973 283.129 209.79L332.751 263.923C333.092 264.295 333.537 264.555 334.028 264.669C334.519 264.783 335.033 264.747 335.503 264.564C335.973 264.381 336.377 264.061 336.661 263.645C336.946 263.229 337.098 262.736 337.099 262.232V215.199C337.101 213.077 337.945 211.042 339.446 209.541C340.946 208.04 342.981 207.196 345.103 207.194H354.734C358.184 207.19 361.49 205.818 363.929 203.379C366.368 200.94 367.74 197.634 367.744 194.185V99.622C367.74 96.173 366.368 92.866 363.929 90.428C361.49 87.9886 358.184 86.6168 354.734 86.6129H15.0093Z" fill="#3F3D56"/>
<path d="M36.816 126.327C44.0696 126.327 49.9496 120.447 49.9496 113.193C49.9496 105.94 44.0696 100.06 36.816 100.06C29.5625 100.06 23.6823 105.94 23.6823 113.193C23.6823 120.447 29.5625 126.327 36.816 126.327Z" fill="#1D90F5"/>
<path d="M339.412 185.867H30.3318C29.4113 185.868 28.4995 185.687 27.6487 185.336C26.7979 184.984 26.0247 184.469 25.3734 183.818C24.7221 183.167 24.2053 182.395 23.8528 181.544C23.5003 180.694 23.3188 179.783 23.3188 178.862C23.3188 177.941 23.5003 177.03 23.8528 176.18C24.2053 175.329 24.7221 174.557 25.3734 173.906C26.0247 173.255 26.7979 172.74 27.6487 172.388C28.4995 172.037 29.4113 171.856 30.3318 171.857H339.412C341.268 171.86 343.048 172.599 344.359 173.912C345.671 175.225 346.408 177.006 346.408 178.862C346.408 180.718 345.671 182.499 344.359 183.812C343.048 185.125 341.268 185.864 339.412 185.867Z" fill="#E6E6E6"/>
<path d="M238.72 156.097H30.3318C29.4113 156.098 28.4995 155.918 27.6487 155.566C26.7979 155.215 26.0247 154.699 25.3734 154.048C24.7221 153.398 24.2053 152.625 23.8528 151.775C23.5003 150.924 23.3188 150.013 23.3188 149.092C23.3188 148.172 23.5003 147.26 23.8528 146.41C24.2053 145.559 24.7221 144.787 25.3734 144.136C26.0247 143.486 26.7979 142.97 27.6487 142.618C28.4995 142.267 29.4113 142.086 30.3318 142.088H238.72C240.578 142.088 242.36 142.826 243.673 144.139C244.987 145.453 245.725 147.234 245.725 149.092C245.725 150.95 244.987 152.732 243.673 154.045C242.36 155.359 240.578 156.097 238.72 156.097Z" fill="#E6E6E6"/>
<path d="M555.067 587.428C554.219 587.102 553.49 586.527 552.978 585.777C552.465 585.028 552.193 584.14 552.196 583.232V536.199C552.195 534.607 551.561 533.081 550.436 531.955C549.31 530.829 547.784 530.196 546.192 530.194H536.56C532.581 530.189 528.766 528.607 525.952 525.793C523.138 522.979 521.556 519.164 521.551 515.185V420.622C521.556 416.643 523.138 412.828 525.952 410.014C528.766 407.2 532.581 405.617 536.56 405.613H876.286C880.265 405.617 884.08 407.2 886.894 410.014C889.708 412.828 891.29 416.643 891.295 420.622V515.185C891.29 519.164 889.708 522.979 886.894 525.793C884.08 528.607 880.265 530.189 876.286 530.194H614.066C613.234 530.195 612.411 530.368 611.649 530.704C610.887 531.039 610.203 531.528 609.64 532.141L560.018 586.274C559.599 586.735 559.088 587.103 558.519 587.356C557.95 587.608 557.334 587.738 556.711 587.739C556.148 587.738 555.591 587.633 555.067 587.428Z" fill="#F4F4F4"/>
<path d="M555.067 587.428C554.219 587.102 553.49 586.527 552.978 585.777C552.465 585.028 552.193 584.14 552.196 583.232V536.199C552.195 534.607 551.561 533.081 550.436 531.955C549.31 530.829 547.784 530.196 546.192 530.194H536.56C532.581 530.189 528.766 528.607 525.952 525.793C523.138 522.979 521.556 519.164 521.551 515.185V420.622C521.556 416.643 523.138 412.828 525.952 410.014C528.766 407.2 532.581 405.617 536.56 405.613H876.286C880.265 405.617 884.08 407.2 886.894 410.014C889.708 412.828 891.29 416.643 891.295 420.622V515.185C891.29 519.164 889.708 522.979 886.894 525.793C884.08 528.607 880.265 530.189 876.286 530.194H614.066C613.234 530.195 612.411 530.368 611.649 530.704C610.887 531.039 610.203 531.528 609.64 532.141L560.018 586.274C559.599 586.735 559.088 587.103 558.519 587.356C557.95 587.608 557.334 587.738 556.711 587.739C556.148 587.738 555.591 587.633 555.067 587.428ZM536.56 407.613C533.111 407.617 529.805 408.989 527.366 411.428C524.927 413.866 523.555 417.173 523.551 420.622V515.185C523.555 518.634 524.927 521.94 527.366 524.379C529.805 526.818 533.111 528.19 536.56 528.194H546.192C548.314 528.196 550.349 529.041 551.849 530.541C553.35 532.042 554.194 534.077 554.196 536.199V583.232C554.197 583.736 554.349 584.229 554.633 584.645C554.918 585.061 555.322 585.381 555.792 585.564C556.262 585.747 556.776 585.783 557.267 585.669C557.758 585.555 558.203 585.295 558.544 584.923L608.166 530.79C608.916 529.973 609.828 529.32 610.844 528.873C611.859 528.426 612.957 528.195 614.066 528.194H876.286C879.735 528.19 883.041 526.818 885.48 524.379C887.919 521.94 889.291 518.634 889.295 515.185V420.622C889.291 417.173 887.919 413.866 885.48 411.428C883.041 408.989 879.735 407.617 876.286 407.613H536.56Z" fill="#3F3D56"/>
<path d="M449.178 616.71C435.246 625.631 419.105 630.496 402.564 630.759C386.023 631.022 369.736 626.674 355.527 618.2C358.027 613.548 361.194 609.286 364.928 605.55C370.689 599.762 377.7 595.371 385.423 592.715C393.146 590.059 401.375 589.209 409.478 590.229C417.581 591.25 425.342 594.114 432.165 598.603C438.988 603.091 444.692 609.084 448.837 616.12C448.947 616.31 449.067 616.51 449.178 616.71Z" fill="#1D90F5"/>
<path d="M398.443 568.89C422.854 568.89 442.644 549.1 442.644 524.688C442.644 500.277 422.854 480.487 398.443 480.487C374.031 480.487 354.241 500.277 354.241 524.688C354.241 549.1 374.031 568.89 398.443 568.89Z" fill="#0B0B0C"/>
<path d="M431.333 555.866C440.048 539.923 434.188 519.934 418.246 511.219C402.303 502.504 382.314 508.363 373.599 524.306C364.884 540.248 370.744 560.237 386.686 568.952C402.629 577.667 422.618 571.808 431.333 555.866Z" fill="#FFB8B8"/>
<path d="M367.898 519.393C375.416 524.574 384.338 527.332 393.469 527.296C390.212 529.554 386.504 531.079 382.601 531.767C394.74 534.371 407.287 534.441 419.454 531.974C422.159 531.54 424.769 530.644 427.169 529.324C428.365 528.656 429.408 527.744 430.228 526.646C431.048 525.549 431.629 524.292 431.931 522.955C432.74 518.336 429.141 514.14 425.4 511.311C419.673 507.047 413.07 504.109 406.069 502.71C399.067 501.311 391.842 501.486 384.916 503.222C380.394 504.391 375.864 506.366 372.926 509.997C369.989 513.629 369.119 519.228 371.917 522.968L367.898 519.393Z" fill="#0B0B0C"/>
<path d="M401.147 631.77C379.5 631.764 358.581 623.952 342.227 609.769C325.873 595.586 315.181 575.982 312.112 554.553C309.043 533.124 313.804 511.307 325.52 493.104C337.236 474.901 355.122 461.532 375.898 455.45C396.673 449.368 418.945 450.981 438.628 459.992C458.311 469.003 474.085 484.809 483.057 504.51C492.028 524.211 493.596 546.486 487.473 567.249C481.349 588.013 467.945 605.872 449.718 617.552C435.224 626.846 418.365 631.781 401.147 631.77ZM401.147 453.77C383.74 453.769 366.724 458.929 352.25 468.599C337.775 478.269 326.494 492.014 319.832 508.096C313.169 524.177 311.426 541.873 314.822 558.946C318.217 576.019 326.599 591.701 338.908 604.01C351.217 616.319 366.899 624.701 383.972 628.096C401.044 631.492 418.741 629.748 434.822 623.086C450.904 616.424 464.649 605.142 474.319 590.668C483.989 576.194 489.149 559.177 489.147 541.77C489.121 518.439 479.841 496.072 463.344 479.574C446.846 463.077 424.478 453.797 401.147 453.77Z" fill="#3F3D56"/>
<path d="M563.816 446.327C571.07 446.327 576.95 440.447 576.95 433.193C576.95 425.94 571.07 420.06 563.816 420.06C556.562 420.06 550.682 425.94 550.682 433.193C550.682 440.447 556.562 446.327 563.816 446.327Z" fill="#1D90F5"/>
<path d="M866.412 505.867H557.332C556.411 505.868 555.5 505.687 554.649 505.336C553.798 504.984 553.025 504.469 552.373 503.818C551.722 503.167 551.205 502.395 550.853 501.544C550.5 500.694 550.319 499.783 550.319 498.862C550.319 497.941 550.5 497.03 550.853 496.18C551.205 495.329 551.722 494.557 552.373 493.906C553.025 493.255 553.798 492.74 554.649 492.388C555.5 492.037 556.411 491.856 557.332 491.857H866.412C868.27 491.857 870.051 492.595 871.365 493.909C872.678 495.223 873.417 497.004 873.417 498.862C873.417 500.72 872.678 502.501 871.365 503.815C870.051 505.129 868.27 505.867 866.412 505.867Z" fill="#E6E6E6"/>
<path d="M765.72 476.097H557.332C556.411 476.098 555.5 475.918 554.649 475.566C553.798 475.215 553.025 474.699 552.373 474.048C551.722 473.398 551.205 472.625 550.853 471.775C550.5 470.924 550.319 470.013 550.319 469.092C550.319 468.172 550.5 467.26 550.853 466.41C551.205 465.559 551.722 464.787 552.373 464.136C553.025 463.486 553.798 462.97 554.649 462.618C555.5 462.267 556.411 462.086 557.332 462.088H765.72C767.576 462.09 769.356 462.829 770.668 464.142C771.98 465.456 772.716 467.236 772.716 469.092C772.716 470.949 771.98 472.729 770.668 474.042C769.356 475.356 767.576 476.095 765.72 476.097Z" fill="#E6E6E6"/>
<path d="M554.644 596.38C568.177 596.38 579.147 595.163 579.147 593.661C579.147 592.159 568.177 590.941 554.644 590.941C541.11 590.941 530.14 592.159 530.14 593.661C530.14 595.163 541.11 596.38 554.644 596.38Z" fill="#F2F2F2"/>
<path d="M335.644 276.381C349.177 276.381 360.147 275.163 360.147 273.661C360.147 272.159 349.177 270.941 335.644 270.941C322.11 270.941 311.14 272.159 311.14 273.661C311.14 275.163 322.11 276.381 335.644 276.381Z" fill="#F2F2F2"/>
</svg>
